<svg xmlns="http://www.w3.org/2000/svg" viewBox="0 0 1027.11 167.5">
  <path d="M0 155.05V47.23h27.89v20.33a50.19 50.19 0 0 1 14.43-16.3q8.94-6.48 21.9-6.48a35.5 35.5 0 0 1 13.65 2.4 27.6 27.6 0 0 1 10.26 7.57 25.6 25.6 0 0 1 5.75 12.82q8-12.18 16.32-17.48t20.15-5.3q13.14 0 21.32 7.7t8.19 24.9v77.66h-27.89V86.82q0-12.09-3.87-15.63a12.49 12.49 0 0 0-8.66-3.54c-4.38 0-8.7 1.59-13 4.74s-8.47 7.88-12.58 14.17v68.49H65.99V86.9q0-12-3.78-15.61a12.66 12.66 0 0 0-9.08-3.64q-6.39 0-12.72 4.69T27.89 86.56v68.49ZM192 29.06V4.81h29.06v24.25Zm0 126V47.23h29.06v107.82ZM254.38 155.05V47.23h29.06v20.33q7.86-12.48 17.38-17.63a40.19 40.19 0 0 1 19.34-5.18 31.86 31.86 0 0 1 21.95 8.19q9.18 8.21 9.18 25.88v76.2h-29.06v-69q0-8.85-1.62-12a11.37 11.37 0 0 0-4.42-4.77 12.25 12.25 0 0 0-6.24-1.62 23.92 23.92 0 0 0-12.47 4q-6.48 4-14 15.56v67.86ZM439 154.46q-10.41 3-16.39 3-14.25 0-22.1-4a27.58 27.58 0 0 1-11.78-10.94q-3.93-6.93-3.93-20.38V65.4h-12.08V47.23h12.08V29.06l29.07-3.31v21.5h23.07v18.17h-23.07v52.83q0 11.67 4.12 15.74t12.08 4.07a41.1 41.1 0 0 0 8.93-1.18ZM461.91 155.05V.05h29.07v67.6q5.51-11.43 14.23-17.15a36.49 36.49 0 0 1 20.52-5.75q19.65 0 30.4 14.72t10.75 38.69q0 25.34-12 42.32t-33.49 17a44.13 44.13 0 0 1-11.14-1.33 37.33 37.33 0 0 1-9.63-4 46.21 46.21 0 0 1-9.63-8.06l-5.43 10.96Zm29.07-28.17q6 6.87 11.31 9.32a25.3 25.3 0 0 0 10.74 2.45q11.6 0 17.26-11.52t5.66-26.38q0-15.39-5.42-24.22t-15.39-8.83q-6.24 0-12.52 4.47a49.33 49.33 0 0 0-11.64 12.11ZM638.19 157.5q-17.48 0-30-6.82a45.06 45.06 0 0 1-19.09-20.08 69.38 69.38 0 0 1-.1-58.77 45 45 0 0 1 19-20.13q12.62-6.95 30.19-6.95t30.2 6.92a45.4 45.4 0 0 1 19 20.13 69.14 69.14 0 0 1 0 58.77 45.13 45.13 0 0 1-19.1 20.08q-12.52 6.84-30.1 6.85Zm0-18.17q12.38 0 18.61-10.85t6.23-27.34q0-16.39-6.23-27.3t-18.61-10.9q-12.27 0-18.51 10.9t-6.23 27.3q0 16.5 6.23 27.34t18.51 10.85ZM763.61 157.5q-17.47 0-30-6.82a45.06 45.06 0 0 1-19.05-20.08 69.38 69.38 0 0 1-.1-58.77 45 45 0 0 1 19-20.13q12.58-6.95 30.15-6.95t30.2 6.92a45.4 45.4 0 0 1 19 20.13 69.24 69.24 0 0 1 0 58.77 45.13 45.13 0 0 1-19.1 20.08q-12.52 6.84-30.1 6.85Zm0-18.17q12.38 0 18.61-10.85t6.23-27.34q0-16.39-6.23-27.3t-18.61-10.9q-12.27 0-18.51 10.9t-6.23 27.3q0 16.5 6.23 27.34t18.51 10.85ZM842.98 155.05V47.23h29.06v20.33a43 43 0 0 1 14.24-16.6 34.84 34.84 0 0 1 20.13-6.18 25.85 25.85 0 0 1 5.4.58v25.93a33 33 0 0 0-11.49-2.26 29.33 29.33 0 0 0-15.71 4.37q-7.05 4.35-12.57 13.21v68.44ZM998.05 155.05v-20.3q-7.76 12.38-17.28 17.58a40.21 40.21 0 0 1-19.44 5.2 31.82 31.82 0 0 1-22-8.2q-9.18-8.19-9.18-25.87v-76.2h29.07v69q0 8.84 1.62 12a11.32 11.32 0 0 0 4.41 4.76 12.25 12.25 0 0 0 6.24 1.62 23.83 23.83 0 0 0 12.47-4q6.48-4 14-15.56V47.23h29.07v107.82Z" fill="#46534a"/>
  <path d="M0 165.05V57.23h27.89v20.33a50.19 50.19 0 0 1 14.43-16.3q8.94-6.48 21.9-6.48a35.5 35.5 0 0 1 13.65 2.4 27.6 27.6 0 0 1 10.26 7.57 25.6 25.6 0 0 1 5.75 12.82q8-12.18 16.32-17.48t20.15-5.3q13.14 0 21.32 7.7t8.19 24.9v77.66h-27.89V96.82q0-12.09-3.87-15.63a12.49 12.49 0 0 0-8.66-3.54c-4.38 0-8.7 1.59-13 4.74s-8.47 7.88-12.58 14.17v68.49H65.99V96.9q0-12-3.78-15.61a12.66 12.66 0 0 0-9.08-3.64q-6.39 0-12.72 4.69T27.89 96.56v68.49ZM192 39.06V14.81h29.06v24.25Zm0 126V57.23h29.06v107.82ZM254.38 165.05V57.23h29.06v20.33q7.86-12.48 17.38-17.63a40.19 40.19 0 0 1 19.34-5.18 31.86 31.86 0 0 1 21.95 8.19q9.18 8.21 9.18 25.88v76.2h-29.06v-69q0-8.85-1.62-12a11.37 11.37 0 0 0-4.42-4.77 12.25 12.25 0 0 0-6.24-1.62 23.92 23.92 0 0 0-12.47 4q-6.48 4-14 15.56v67.86ZM439 164.46q-10.41 3-16.39 3-14.25 0-22.1-4a27.58 27.58 0 0 1-11.78-10.94q-3.93-6.93-3.93-20.38V75.4h-12.08V57.23h12.08V39.06l29.07-3.31v21.5h23.07v18.17h-23.07v52.83q0 11.67 4.12 15.74t12.08 4.07a41.1 41.1 0 0 0 8.93-1.18ZM461.91 165.05v-155h29.07v67.6q5.51-11.43 14.23-17.15a36.49 36.49 0 0 1 20.52-5.75q19.65 0 30.4 14.72t10.75 38.69q0 25.34-12 42.32t-33.49 17a44.13 44.13 0 0 1-11.14-1.33 37.33 37.33 0 0 1-9.63-4 46.21 46.21 0 0 1-9.63-8.06l-5.43 10.96Zm29.07-28.17q6 6.87 11.31 9.32a25.3 25.3 0 0 0 10.74 2.45q11.6 0 17.26-11.52t5.66-26.38q0-15.39-5.42-24.22t-15.39-8.83q-6.24 0-12.52 4.47a49.33 49.33 0 0 0-11.64 12.11ZM638.19 167.5q-17.48 0-30-6.82a45.06 45.06 0 0 1-19.09-20.08 69.38 69.38 0 0 1-.1-58.77 45 45 0 0 1 19-20.13q12.62-6.95 30.19-6.95t30.2 6.92a45.4 45.4 0 0 1 19 20.13 69.14 69.14 0 0 1 0 58.77 45.13 45.13 0 0 1-19.1 20.08q-12.52 6.84-30.1 6.85Zm0-18.17q12.38 0 18.61-10.85t6.23-27.34q0-16.39-6.23-27.3t-18.61-10.9q-12.27 0-18.51 10.9t-6.23 27.3q0 16.5 6.23 27.34t18.51 10.85ZM763.61 167.5q-17.47 0-30-6.82a45.06 45.06 0 0 1-19.05-20.08 69.38 69.38 0 0 1-.1-58.77 45 45 0 0 1 19-20.13q12.58-6.95 30.15-6.95t30.2 6.92a45.4 45.4 0 0 1 19 20.13 69.24 69.24 0 0 1 0 58.77 45.13 45.13 0 0 1-19.1 20.08q-12.52 6.84-30.1 6.85Zm0-18.17q12.38 0 18.61-10.85t6.23-27.34q0-16.39-6.23-27.3t-18.61-10.9q-12.27 0-18.51 10.9t-6.23 27.3q0 16.5 6.23 27.34t18.51 10.85ZM842.98 165.05V57.23h29.06v20.33a43 43 0 0 1 14.24-16.6 34.84 34.84 0 0 1 20.13-6.18 25.85 25.85 0 0 1 5.4.58v25.93a33 33 0 0 0-11.49-2.26 29.33 29.33 0 0 0-15.71 4.37q-7.05 4.35-12.57 13.21v68.44ZM998.05 165.05v-20.3q-7.76 12.38-17.28 17.58a40.21 40.21 0 0 1-19.44 5.2 31.82 31.82 0 0 1-22-8.2q-9.18-8.19-9.18-25.87v-76.2h29.07v69q0 8.83 1.62 12a11.32 11.32 0 0 0 4.41 4.76 12.25 12.25 0 0 0 6.24 1.62 23.83 23.83 0 0 0 12.47-4q6.48-4 14-15.56V57.23h29.07v107.82Z" fill="#fff"/>
</svg>
